<svg xmlns="http://www.w3.org/2000/svg">
    <symbol id="all" viewBox="0 0 20 40">
       <symbol viewBox="0 0 20 20" id="iconfont-one"> <!-- Generator: Sketch 46.2 (44496) - http://www.bohemiancoding.com/sketch --> <title>&#x5220;&#x9664;@2x</title> <desc>Created with Sketch.</desc>  <g id="Page-1" stroke="none" stroke-width="1" fill="none" fill-rule="evenodd"> <g id="&#x586B;&#x5199;&#x8BA2;&#x5355;" transform="translate(-14.000000, -397.000000)" fill="#FF5500"> <g id="&#x513F;&#x7AE5;&#x7968;&#x4FE1;&#x606F;" transform="translate(0.000000, 363.000000)"> <g id="&#x5220;&#x9664;" transform="translate(12.000000, 32.000000)"> <path d="M12,22 C17.5228475,22 22,17.5228475 22,12 C22,6.4771525 17.5228475,2 12,2 C6.4771525,2 2,6.4771525 2,12 C2,17.5228475 6.4771525,22 12,22 L12,22 Z M12,21 C16.9705627,21 21,16.9705627 21,12 C21,7.02943725 16.9705627,3 12,3 C7.02943725,3 3,7.02943725 3,12 C3,16.9705627 7.02943725,21 12,21 L12,21 Z M16.5,11.5 C16.7761424,11.5 17,11.7238576 17,12 C17,12.2761424 16.7761424,12.5 16.5,12.5 L7.5,12.5 C7.22385763,12.5 7,12.2761424 7,12 C7,11.7238576 7.22385763,11.5 7.5,11.5 L16.5,11.5 Z" id="delete"/> </g> </g> </g> </g> </symbol> <symbol viewBox="0 0 20 20" id="iconfont-two"> <!-- Generator: Sketch 46.2 (44496) - http://www.bohemiancoding.com/sketch --> <title>&#x5C0F;&#x56FE;&#x6807;/&#x52FE;&#x9009;&#x6846;/&#x5DF2;&#x52FE;&#x9009;</title> <desc>Created with Sketch.</desc>  <g id="Page-2" stroke="none" stroke-width="1" fill="none" fill-rule="evenodd"> <g id="&#x586B;&#x5199;&#x8BA2;&#x5355;" transform="translate(-340.000000, -233.000000)"> <g id="&#x5EA7;&#x6B21;&#x4FE1;&#x606F;" transform="translate(0.000000, 222.000000)"> <g id="&#x5C0F;&#x56FE;&#x6807;/&#x52FE;&#x9009;&#x6846;/&#x5DF2;&#x52FE;&#x9009;" transform="translate(339.000000, 10.000000)"> <rect id="Rectangle-" x="0" y="0" width="24" height="24"/> <rect id="Rectangle-" fill="#2DBB55" x="1" y="1" width="22" height="22" rx="2"/> <path d="M4.35258134,12.609111 C4.15785604,12.40758 4.13528484,12.0601274 4.29312816,11.845353 L4.5726948,11.464952 C4.73458501,11.2446711 5.04904779,11.2065295 5.25933993,11.3677063 L8.33790563,13.7272504 C8.7753477,14.0625247 9.4743322,14.047432 9.89836683,13.6941769 L18.7542163,6.31653807 C18.9640628,6.14171892 19.2929823,6.15683556 19.4863404,6.34779535 L19.6478367,6.50728854 C19.8423311,6.6993706 19.8463333,7.00631491 19.6383239,7.21102722 L9.84288019,16.851207 C9.44897177,17.2388717 8.8241251,17.2369372 8.43783903,16.8371502 L4.35258134,12.609111 Z" id="Fill-" fill="#FFFFFF"/> </g> </g> </g> </g> </symbol> 
    </symbol>
    <symbol id="checked" viewBox="0 0 22 22">
       <!-- Generator: Sketch 46.2 (44496) - http://www.bohemiancoding.com/sketch --> <title>&#x5C0F;&#x56FE;&#x6807;/&#x52FE;&#x9009;&#x6846;/&#x5DF2;&#x52FE;&#x9009;</title> <desc>Created with Sketch.</desc>  <g id="Page-1" stroke="none" stroke-width="1" fill="none" fill-rule="evenodd"> <g id="&#x586B;&#x5199;&#x8BA2;&#x5355;" transform="translate(-340.000000, -233.000000)"> <g id="&#x5EA7;&#x6B21;&#x4FE1;&#x606F;" transform="translate(0.000000, 222.000000)"> <g id="&#x5C0F;&#x56FE;&#x6807;/&#x52FE;&#x9009;&#x6846;/&#x5DF2;&#x52FE;&#x9009;" transform="translate(339.000000, 10.000000)"> <rect id="Rectangle-" x="0" y="0" width="24" height="24"/> <rect id="Rectangle-" fill="#2DBB55" x="1" y="1" width="22" height="22" rx="2"/> <path d="M4.35258134,12.609111 C4.15785604,12.40758 4.13528484,12.0601274 4.29312816,11.845353 L4.5726948,11.464952 C4.73458501,11.2446711 5.04904779,11.2065295 5.25933993,11.3677063 L8.33790563,13.7272504 C8.7753477,14.0625247 9.4743322,14.047432 9.89836683,13.6941769 L18.7542163,6.31653807 C18.9640628,6.14171892 19.2929823,6.15683556 19.4863404,6.34779535 L19.6478367,6.50728854 C19.8423311,6.6993706 19.8463333,7.00631491 19.6383239,7.21102722 L9.84288019,16.851207 C9.44897177,17.2388717 8.8241251,17.2369372 8.43783903,16.8371502 L4.35258134,12.609111 Z" id="Fill-" fill="#FFFFFF"/> </g> </g> </g> </g> 
    </symbol>
    <symbol id="del" viewBox="0 0 20 20">
       <!-- Generator: Sketch 46.2 (44496) - http://www.bohemiancoding.com/sketch --> <title>&#x5220;&#x9664;@2x</title> <desc>Created with Sketch.</desc>  <g id="Page-1" stroke="none" stroke-width="1" fill="none" fill-rule="evenodd"> <g id="&#x586B;&#x5199;&#x8BA2;&#x5355;" transform="translate(-14.000000, -397.000000)" fill="#FF5500"> <g id="&#x513F;&#x7AE5;&#x7968;&#x4FE1;&#x606F;" transform="translate(0.000000, 363.000000)"> <g id="&#x5220;&#x9664;" transform="translate(12.000000, 32.000000)"> <path d="M12,22 C17.5228475,22 22,17.5228475 22,12 C22,6.4771525 17.5228475,2 12,2 C6.4771525,2 2,6.4771525 2,12 C2,17.5228475 6.4771525,22 12,22 L12,22 Z M12,21 C16.9705627,21 21,16.9705627 21,12 C21,7.02943725 16.9705627,3 12,3 C7.02943725,3 3,7.02943725 3,12 C3,16.9705627 7.02943725,21 12,21 L12,21 Z M16.5,11.5 C16.7761424,11.5 17,11.7238576 17,12 C17,12.2761424 16.7761424,12.5 16.5,12.5 L7.5,12.5 C7.22385763,12.5 7,12.2761424 7,12 C7,11.7238576 7.22385763,11.5 7.5,11.5 L16.5,11.5 Z" id="delete"/> </g> </g> </g> </g> 
    </symbol></svg>