<svg xmlns="http://www.w3.org/2000/svg" xmlns:xlink="http://www.w3.org/1999/xlink" width="0" height="0" style="position:absolute">
	
		<symbol id="checked" viewBox="0 0 22 22">
			<title>小图标/勾选框/已勾选</title><g transform="translate(-1 -1)" fill="none" fill-rule="evenodd"><path d="M0 0h24v24H0z"></path><rect fill="#2DBB55" x="1" y="1" width="22" height="22" rx="2"></rect><path d="M4.353 12.61a.62.62 0 0 1-.06-.765l.28-.38a.489.489 0 0 1 .686-.097l3.079 2.36c.437.335 1.136.32 1.56-.034l8.856-7.377a.558.558 0 0 1 .732.03l.162.16a.486.486 0 0 1-.01.704l-9.795 9.64a.983.983 0 0 1-1.405-.014L4.353 12.61z" fill="#FFF"></path></g>
		</symbol>
	
		<symbol id="del" viewBox="0 0 20 20">
			<title>删除@2x</title><path d="M10 20c5.523 0 10-4.477 10-10S15.523 0 10 0 0 4.477 0 10s4.477 10 10 10zm0-1a9 9 0 1 0 0-18 9 9 0 0 0 0 18zm4.5-9.5a.5.5 0 1 1 0 1h-9a.5.5 0 1 1 0-1h9z" fill="#F50" fill-rule="evenodd"></path>
		</symbol>
	
</svg>
