<?xml version="1.0" encoding="UTF-8"?>
<svg width="22px" height="22px" viewBox="0 0 22 22" version="1.1" xmlns="http://www.w3.org/2000/svg" xmlns:xlink="http://www.w3.org/1999/xlink">
    <!-- Generator: Sketch 46.2 (44496) - http://www.bohemiancoding.com/sketch -->
    <title>小图标/勾选框/已勾选</title>
    <desc>Created with Sketch.</desc>
    <defs></defs>
    <g id="Page-1" stroke="none" stroke-width="1" fill="none" fill-rule="evenodd">
        <g id="填写订单" transform="translate(-340.000000, -233.000000)">
            <g id="座次信息" transform="translate(0.000000, 222.000000)">
                <g id="小图标/勾选框/已勾选" transform="translate(339.000000, 10.000000)">
                    <rect id="Rectangle-" x="0" y="0" width="24" height="24"></rect>
                    <rect id="Rectangle-" fill="#2DBB55" x="1" y="1" width="22" height="22" rx="2"></rect>
                    <path d="M4.35258134,12.609111 C4.15785604,12.40758 4.13528484,12.0601274 4.29312816,11.845353 L4.5726948,11.464952 C4.73458501,11.2446711 5.04904779,11.2065295 5.25933993,11.3677063 L8.33790563,13.7272504 C8.7753477,14.0625247 9.4743322,14.047432 9.89836683,13.6941769 L18.7542163,6.31653807 C18.9640628,6.14171892 19.2929823,6.15683556 19.4863404,6.34779535 L19.6478367,6.50728854 C19.8423311,6.6993706 19.8463333,7.00631491 19.6383239,7.21102722 L9.84288019,16.851207 C9.44897177,17.2388717 8.8241251,17.2369372 8.43783903,16.8371502 L4.35258134,12.609111 Z" id="Fill-" fill="#FFFFFF"></path>
                </g>
            </g>
        </g>
    </g>
</svg>